<mxfile host="app.diagrams.net" modified="2022-03-18T02:02:51.043Z" agent="5.0 (Macintosh; Intel Mac OS X 10_15_7) AppleWebKit/537.36 (KHTML, like Gecko) Chrome/99.0.4844.51 Safari/537.36" etag="E1-bWJ7JZHitoCZjjE3e" version="17.0.0" type="github">
  <diagram id="TzxcViBZO3L1NVoKGhuT" name="Page-1">
    <mxGraphModel dx="1538" dy="834" grid="1" gridSize="10" guides="1" tooltips="1" connect="1" arrows="1" fold="1" page="1" pageScale="1" pageWidth="1169" pageHeight="827" math="0" shadow="0">
      <root>
        <mxCell id="0" />
        <mxCell id="1" parent="0" />
        <mxCell id="0f1847-aPTYiUqTa3DHg-2" value="gateway" style="swimlane;" vertex="1" parent="1">
          <mxGeometry x="270" y="220" width="380" height="200" as="geometry" />
        </mxCell>
        <mxCell id="0f1847-aPTYiUqTa3DHg-3" value="filter-1" style="rounded=1;whiteSpace=wrap;html=1;" vertex="1" parent="0f1847-aPTYiUqTa3DHg-2">
          <mxGeometry x="20" y="50" width="50" height="120" as="geometry" />
        </mxCell>
        <mxCell id="0f1847-aPTYiUqTa3DHg-5" value="filter-3" style="rounded=1;whiteSpace=wrap;html=1;" vertex="1" parent="0f1847-aPTYiUqTa3DHg-2">
          <mxGeometry x="140" y="50" width="50" height="120" as="geometry" />
        </mxCell>
        <mxCell id="0f1847-aPTYiUqTa3DHg-4" value="filter-2" style="rounded=1;whiteSpace=wrap;html=1;" vertex="1" parent="0f1847-aPTYiUqTa3DHg-2">
          <mxGeometry x="80" y="50" width="50" height="120" as="geometry" />
        </mxCell>
        <mxCell id="0f1847-aPTYiUqTa3DHg-7" value="router" style="rhombus;whiteSpace=wrap;html=1;" vertex="1" parent="0f1847-aPTYiUqTa3DHg-2">
          <mxGeometry x="220" y="70" width="115" height="80" as="geometry" />
        </mxCell>
        <mxCell id="0f1847-aPTYiUqTa3DHg-8" value="router_rule" style="swimlane;fontStyle=0;childLayout=stackLayout;horizontal=1;startSize=30;horizontalStack=0;resizeParent=1;resizeParentMax=0;resizeLast=0;collapsible=1;marginBottom=0;" vertex="1" parent="1">
          <mxGeometry x="470" y="450" width="180" height="100" as="geometry" />
        </mxCell>
        <mxCell id="0f1847-aPTYiUqTa3DHg-9" value="/basic/*         /wmsbasic" style="text;strokeColor=none;fillColor=none;align=left;verticalAlign=middle;spacingLeft=4;spacingRight=4;overflow=hidden;points=[[0,0.5],[1,0.5]];portConstraint=eastwest;rotatable=0;" vertex="1" parent="0f1847-aPTYiUqTa3DHg-8">
          <mxGeometry y="30" width="180" height="30" as="geometry" />
        </mxCell>
        <mxCell id="0f1847-aPTYiUqTa3DHg-10" value="/inbound/*    /wmsinbonnd" style="text;strokeColor=none;fillColor=none;align=left;verticalAlign=middle;spacingLeft=4;spacingRight=4;overflow=hidden;points=[[0,0.5],[1,0.5]];portConstraint=eastwest;rotatable=0;" vertex="1" parent="0f1847-aPTYiUqTa3DHg-8">
          <mxGeometry y="60" width="180" height="40" as="geometry" />
        </mxCell>
      </root>
    </mxGraphModel>
  </diagram>
</mxfile>
